<svg width="256" height="256" viewBox="0 0 256 256" fill="none" xmlns="http://www.w3.org/2000/svg">
<rect x="79" y="20.0391" width="10.0007" height="139.972" fill="black"/>
<rect x="189" y="180.018" width="10.0007" height="30.002" fill="black"/>
<rect x="179" y="209.998" width="10.0007" height="30.002" fill="black"/>
<rect x="179" y="90" width="10.0007" height="10.0007" fill="black"/>
<rect x="189" y="100" width="10.0007" height="10.0007" fill="black"/>
<rect x="69" y="119.98" width="10.0007" height="10.0007" fill="black"/>
<rect x="49" y="140.018" width="10.0007" height="10.0007" fill="black"/>
<rect x="49" y="109.941" width="20.0013" height="10.0007" fill="black"/>
<rect x="89.0098" y="209.998" width="10.0007" height="20.0013" fill="black"/>
<rect x="79" y="189.998" width="10.0007" height="20.0013" fill="black"/>
<rect x="69" y="169.998" width="10.0007" height="20.0013" fill="black"/>
<rect x="59" y="149.979" width="10.0007" height="20.0013" fill="black"/>
<rect x="39" y="129.961" width="10.0007" height="20.0013" fill="black"/>
<rect x="39" y="109.941" width="10.0007" height="20.0013" fill="black"/>
<rect x="89.0098" y="229.939" width="90.0059" height="10.0007" fill="black"/>
<rect x="199" y="109.941" width="10.0007" height="69.9861" fill="black"/>
<rect x="168.99" y="90" width="10.0007" height="39.9921" fill="black"/>
<rect x="138.995" y="90" width="10.0007" height="30.002" fill="black"/>
<rect x="119" y="69.9609" width="20.0013" height="10.0007" fill="black"/>
<rect x="138.995" y="79.9805" width="30.002" height="10.0007" fill="black"/>
<rect x="109.009" y="20.0391" width="10.0007" height="99.9802" fill="black"/>
<rect x="89.0098" y="10" width="20.0013" height="10.0007" fill="black"/>
<rect x="89" y="20" width="19.9999" height="189.999" fill="white"/>
<rect x="179" y="179.998" width="9.99996" height="29.9999" fill="white"/>
<rect x="79" y="159.998" width="9.99996" height="29.9999" fill="white"/>
<rect x="69" y="130" width="9.99996" height="39.9998" fill="white"/>
<rect x="59" y="120" width="10" height="30" fill="white"/>
<rect x="49" y="120" width="9.99996" height="19.9999" fill="white"/>
<rect x="99" y="209.998" width="9.99996" height="19.9999" fill="white"/>
<rect x="179" y="100" width="9.99996" height="9.99996" fill="white"/>
<rect x="169" y="130" width="9.99996" height="99.9996" fill="white"/>
<rect x="139" y="120" width="9.99996" height="110" fill="white"/>
<rect x="109" y="120" width="9.99996" height="110" fill="white"/>
<rect x="119" y="80" width="19.9999" height="149.999" fill="white"/>
<rect x="149" y="90" width="19.9999" height="139.999" fill="white"/>
<rect x="179" y="110" width="19.9999" height="69.9997" fill="white"/>
</svg>
